<svg width="30" height="37" viewBox="0 0 30 37" fill="none" xmlns="http://www.w3.org/2000/svg">
<path d="M15 18.8535C16.0312 18.8535 16.9144 18.484 17.6494 17.7449C18.3844 17.0059 18.7512 16.1185 18.75 15.0828C18.75 14.0459 18.3825 13.1579 17.6475 12.4188C16.9125 11.6797 16.03 11.3108 15 11.3121C13.9688 11.3121 13.0856 11.6816 12.3506 12.4207C11.6156 13.1597 11.2487 14.0471 11.25 15.0828C11.25 16.1197 11.6175 17.0077 12.3525 17.7468C13.0875 18.4859 13.97 18.8548 15 18.8535ZM15 37C14.75 37 14.5 36.9529 14.25 36.8586C14 36.7643 13.7812 36.6386 13.5938 36.4815C9.03125 32.428 5.625 28.6649 3.375 25.1921C1.125 21.7192 0 18.4752 0 15.4599C0 10.7465 1.50813 6.99151 4.52437 4.1949C7.54063 1.3983 11.0325 0 15 0C18.9688 0 22.4612 1.3983 25.4775 4.1949C28.4937 6.99151 30.0012 10.7465 30 15.4599C30 18.4764 28.875 21.7211 26.625 25.1939C24.375 28.6668 20.9688 32.4293 16.4062 36.4815C16.2188 36.6386 16 36.7643 15.75 36.8586C15.5 36.9529 15.25 37 15 37Z" fill="#E41F28"/>
</svg>
