<svg width="39" height="31" viewBox="0 0 39 31" fill="none" xmlns="http://www.w3.org/2000/svg">
<path d="M3.9 31C2.8275 31 1.90905 30.6202 1.14465 29.8607C0.380253 29.1012 -0.00129669 28.1893 3.3107e-06 27.125V3.875C3.3107e-06 2.80938 0.382203 1.89682 1.1466 1.13732C1.911 0.377815 2.8288 -0.00128838 3.9 3.28947e-06H35.1C36.1725 3.28947e-06 37.0909 0.379753 37.8553 1.13925C38.6197 1.89875 39.0013 2.81067 39 3.875V27.125C39 28.1906 38.6178 29.1032 37.8534 29.8627C37.089 30.6222 36.1712 31.0013 35.1 31H3.9ZM35.1 7.75L20.5237 16.8078C20.3612 16.9047 20.1903 16.9777 20.0109 17.0268C19.8315 17.0758 19.6612 17.0997 19.5 17.0984C19.3375 17.0984 19.1665 17.0745 18.9872 17.0268C18.8078 16.979 18.6375 16.906 18.4762 16.8078L3.9 7.75V27.125H35.1V7.75ZM19.5 13.5625L35.1 3.875H3.9L19.5 13.5625ZM3.9 8.23438V5.37656V5.425V5.40175V8.23438Z" fill="#E41F28"/>
</svg>
