<svg width="25" height="42" viewBox="0 0 25 42" fill="none" xmlns="http://www.w3.org/2000/svg">
<path d="M20.1923 0H4.80769C3.53261 0 2.30976 0.502839 1.40814 1.3979C0.506523 2.29296 0 3.50692 0 4.77273V37.2273C0 38.4931 0.506523 39.707 1.40814 40.6021C2.30976 41.4972 3.53261 42 4.80769 42H20.1923C21.4674 42 22.6902 41.4972 23.5919 40.6021C24.4935 39.707 25 38.4931 25 37.2273V4.77273C25 3.50692 24.4935 2.29296 23.5919 1.3979C22.6902 0.502839 21.4674 0 20.1923 0ZM12.5 40.0909C10.9038 40.0909 9.61538 38.8118 9.61538 37.2273C9.61538 35.6427 10.9038 34.3636 12.5 34.3636C14.0962 34.3636 15.3846 35.6427 15.3846 37.2273C15.3846 38.8118 14.0962 40.0909 12.5 40.0909ZM21.1538 32.4545H3.84615V5.72727H21.1538V32.4545Z" fill="#E41F28"/>
</svg>
